<?xml version="1.0" standalone="no"?>
<!DOCTYPE svg PUBLIC "-//W3C//DTD SVG 20010904//EN"
 "http://www.w3.org/TR/2001/REC-SVG-20010904/DTD/svg10.dtd">
<svg version="1.0" xmlns="http://www.w3.org/2000/svg"
 width="700.000000pt" height="700.000000pt" viewBox="0 0 700.000000 700.000000"
 preserveAspectRatio="xMidYMid meet">
<metadata>
Created by potrace 1.11, written by Peter Selinger 2001-2013
</metadata>
<g transform="translate(0.000000,700.000000) scale(0.100000,-0.100000)"
fill="#000000" stroke="none">
<path d="M1570 5665 c-82 -17 -127 -33 -212 -77 -198 -102 -336 -292 -379
-521 -12 -67 -18 -3661 -6 -3673 7 -7 256 -8 263 -1 2 2 4 628 5 1390 l0 1387
22 0 c12 1 166 2 341 3 l320 2 0 128 c1 71 -1 132 -4 137 -3 4 -149 7 -325 8
-176 0 -328 1 -338 1 -17 1 -18 16 -14 294 5 313 8 333 63 431 49 85 138 161
228 195 70 26 98 31 166 32 54 0 65 -2 125 -16 40 -10 122 -52 164 -84 l33
-25 94 98 c52 54 92 102 89 107 -8 12 -130 99 -140 99 -4 0 -19 8 -33 18 -28
19 -140 57 -202 68 -61 11 -203 10 -260 -1z"/>
<path d="M2669 5656 c-4 -105 -1 -4257 3 -4262 3 -3 64 -5 135 -5 l128 0 3
2144 2 2144 -135 0 c-130 0 -135 -1 -136 -21z"/>
<path d="M4540 5664 c-544 -77 -979 -475 -1105 -1009 -29 -122 -36 -183 -35
-300 0 -90 2 -116 15 -210 8 -59 11 -69 24 -112 5 -18 8 -33 6 -33 -15 0 95
-254 146 -338 95 -156 297 -360 429 -433 19 -11 53 -30 75 -44 84 -51 304
-127 405 -140 19 -3 46 -7 60 -10 46 -10 284 -7 357 4 250 37 504 156 687 321
231 209 376 472 432 790 11 58 11 340 0 405 -53 330 -245 655 -502 846 -33 24
-60 47 -62 52 -2 4 -8 7 -14 7 -5 0 -22 9 -37 20 -43 30 -178 95 -259 124
-177 63 -429 88 -622 60z m321 -269 c398 -51 733 -330 863 -717 36 -106 46
-170 50 -304 15 -468 -300 -899 -751 -1029 -111 -32 -177 -42 -293 -44 -507
-8 -952 367 -1045 879 -14 74 -13 266 1 340 32 171 79 286 172 425 106 157
229 263 407 350 192 94 389 127 596 100z"/>
<path d="M3450 2210 c-25 -19 -25 -21 -28 -184 -3 -145 -1 -166 12 -166 14 0
16 16 16 105 0 112 -1 111 53 106 9 -1 17 4 17 13 0 12 -10 16 -35 16 -33 0
-35 2 -35 34 0 45 24 70 61 62 34 -7 47 9 20 23 -29 16 -53 13 -81 -9z"/>
<path d="M3593 2223 c-17 -6 -17 -28 0 -41 17 -14 40 1 35 23 -3 20 -16 26
-35 18z"/>
<path d="M4049 2213 c0 -10 -1 -83 0 -162 0 -134 1 -145 22 -167 23 -24 62
-31 88 -15 21 14 5 28 -27 23 -42 -6 -55 17 -56 99 -2 73 0 76 44 82 41 6 31
32 -10 29 l-35 -3 1 65 c0 49 -3 66 -13 66 -7 0 -13 -8 -14 -17z"/>
<path d="M4350 2045 c0 -158 2 -185 15 -185 13 0 15 27 15 185 0 158 -2 185
-15 185 -13 0 -15 -27 -15 -185z"/>
<path d="M4453 2223 c-16 -6 -17 -25 -2 -40 15 -15 39 -5 39 17 0 19 -17 30
-37 23z"/>
<path d="M3590 1990 c0 -109 2 -130 15 -130 13 0 15 21 15 130 0 109 -2 130
-15 130 -13 0 -15 -21 -15 -130z"/>
<path d="M3705 2095 c-23 -23 -25 -31 -25 -130 0 -87 3 -105 15 -105 12 0 15
18 15 104 0 116 8 133 60 123 35 -7 49 8 21 22 -32 17 -60 13 -86 -14z"/>
<path d="M3870 2100 c-38 -38 -21 -89 39 -120 46 -23 57 -52 30 -76 -17 -16
-24 -16 -55 -5 -40 14 -53 9 -34 -13 16 -21 73 -30 98 -17 24 13 42 59 32 86
-4 11 -27 34 -51 51 -53 37 -63 70 -25 80 15 3 32 1 41 -6 14 -12 35 -6 35 9
0 11 -46 31 -70 31 -11 0 -29 -9 -40 -20z"/>
<path d="M4450 1990 c0 -109 2 -130 15 -130 16 0 16 3 16 100 0 152 -1 160
-16 160 -13 0 -15 -21 -15 -130z"/>
<path d="M4580 2092 l-35 -30 -3 -101 c-3 -87 -2 -101 12 -101 13 0 16 14 16
90 0 86 2 92 27 116 20 19 36 24 61 22 55 -5 71 -36 73 -140 1 -66 5 -88 15
-88 14 0 21 63 16 141 -5 67 -43 109 -102 116 -39 4 -50 1 -80 -25z"/>
<path d="M4890 2107 c-41 -20 -68 -70 -65 -119 3 -57 1 -52 31 -87 15 -19 39
-33 61 -37 68 -13 154 32 138 73 -6 17 -8 17 -24 -3 -55 -68 -148 -55 -170 24
l-10 33 87 -1 c155 -2 143 -7 128 42 -21 73 -107 110 -176 75z m110 -34 c27
-16 46 -49 32 -56 -19 -8 -166 -1 -169 9 -4 12 26 48 47 57 28 11 62 7 90 -10z"/>
<path d="M3998 1738 c-9 -30 0 -296 11 -317 15 -27 54 -43 87 -35 35 9 32 37
-4 30 -48 -11 -64 11 -64 85 0 101 -1 100 25 95 13 -2 30 -1 37 4 21 13 3 28
-30 25 -33 -3 -32 -4 -32 78 0 32 -4 47 -13 47 -7 0 -15 -6 -17 -12z"/>
<path d="M5408 1738 c-8 -21 2 -38 22 -38 19 0 30 17 23 38 -3 6 -13 12 -23
12 -10 0 -20 -6 -22 -12z"/>
<path d="M3510 1640 c-54 -15 -66 -22 -88 -54 -39 -57 -23 -140 35 -181 74
-52 186 1 198 95 4 33 -16 90 -39 109 -25 21 -82 37 -106 31z m78 -47 c67 -41
44 -153 -36 -178 -56 -17 -122 35 -124 96 -3 85 84 130 160 82z"/>
<path d="M3722 1633 c-13 -27 -5 -158 12 -191 19 -36 69 -61 110 -55 17 2 45
18 61 34 29 28 30 32 30 122 0 120 -18 126 -25 8 -5 -96 -19 -124 -66 -135
-34 -9 -82 19 -91 52 -4 15 -6 60 -6 100 0 73 -9 97 -25 65z"/>
<path d="M4230 1642 c-50 -16 -66 -76 -30 -112 11 -11 24 -20 28 -20 17 0 52
-41 52 -61 0 -31 -42 -45 -73 -24 -18 11 -27 13 -32 5 -12 -19 20 -42 58 -43
47 -1 77 26 77 70 0 28 -7 38 -49 68 -27 20 -51 42 -54 49 -12 30 45 50 71 24
9 -9 15 -9 24 0 7 7 8 15 3 20 -19 16 -60 29 -75 24z"/>
<path d="M4420 1629 c-59 -36 -86 -113 -59 -172 6 -13 28 -35 50 -49 108 -70
238 43 184 161 -29 64 -118 94 -175 60z m133 -50 c40 -43 37 -91 -7 -135 -36
-36 -57 -41 -101 -24 -68 26 -88 114 -37 162 48 45 100 44 145 -3z"/>
<path d="M4675 1644 c-6 -3 -10 -40 -8 -94 1 -73 5 -95 23 -120 46 -65 150
-57 185 15 21 45 21 190 0 199 -13 4 -15 -9 -15 -84 0 -78 -3 -92 -22 -115
-32 -36 -80 -40 -112 -10 -29 27 -28 22 -30 127 -2 79 -4 88 -21 82z"/>
<path d="M4999 1638 c-39 -13 -50 -44 -51 -138 0 -116 0 -122 14 -118 9 3 13
34 14 103 1 89 3 100 23 116 17 14 28 16 41 9 13 -7 21 -7 25 0 15 25 -25 42
-66 28z"/>
<path d="M5202 1636 c-125 -42 -126 -213 -2 -246 57 -15 150 12 150 45 0 20
-19 19 -42 -2 -25 -22 -87 -24 -122 -4 -85 49 -46 181 54 181 26 0 53 -8 70
-20 34 -24 53 -8 24 21 -27 26 -92 38 -132 25z"/>
<path d="M5418 1632 c-2 -9 -4 -69 -3 -132 0 -94 3 -115 15 -118 13 -2 15 17
15 127 1 92 -3 132 -11 135 -7 3 -14 -3 -16 -12z"/>
<path d="M5595 1642 c-32 -7 -62 -31 -77 -62 -19 -38 -19 -191 0 -198 12 -4
15 20 13 103 -2 92 41 141 106 123 45 -12 57 -40 59 -136 1 -46 5 -86 7 -89
16 -15 23 14 22 84 -3 112 -2 109 -35 141 -30 30 -60 41 -95 34z"/>
<path d="M5877 1635 c-46 -16 -64 -30 -83 -68 -19 -35 -12 -97 13 -132 38 -51
123 -65 179 -29 23 16 24 15 24 -9 0 -39 -39 -77 -82 -81 -38 -4 -83 13 -102
39 -8 10 -16 12 -26 5 -12 -7 -11 -13 10 -35 57 -61 181 -51 216 17 21 40 27
182 9 224 -24 58 -97 90 -158 69z m86 -37 c34 -18 46 -40 47 -83 0 -52 -21
-82 -67 -94 -71 -20 -138 38 -127 109 10 60 92 98 147 68z"/>
</g>
</svg>
