<?xml version="1.0" encoding="utf-8"?>
<!-- Generator: Adobe Illustrator 16.0.0, SVG Export Plug-In . SVG Version: 6.00 Build 0)  -->
<!DOCTYPE svg PUBLIC "-//W3C//DTD SVG 1.1//EN" "http://www.w3.org/Graphics/SVG/1.1/DTD/svg11.dtd">
<svg version="1.1" id="Layer_1" xmlns="http://www.w3.org/2000/svg" xmlns:xlink="http://www.w3.org/1999/xlink" x="0px" y="0px"
	 width="500px" height="500px" viewBox="0 0 500 500" enable-background="new 0 0 500 500" xml:space="preserve">
<path fill="#231F20" d="M284.662,350.859l-1.444,1.529c-1.224-1.192-2.404-1.789-3.552-1.789c-0.74,0-1.372,0.241-1.894,0.731
	c-0.527,0.488-0.788,1.067-0.788,1.743c0,0.561,0.218,1.104,0.656,1.626c0.429,0.554,1.335,1.188,2.717,1.9
	c1.691,0.883,2.839,1.734,3.436,2.56c0.591,0.833,0.887,1.771,0.887,2.813c0,1.452-0.507,2.688-1.519,3.703
	c-1.014,1.013-2.279,1.519-3.8,1.519c-1.019,0-1.987-0.22-2.916-0.658c-0.928-0.438-1.69-1.055-2.29-1.848l1.43-1.641
	c1.155,1.321,2.384,1.981,3.678,1.981c0.902,0,1.669-0.293,2.308-0.886c0.636-0.589,0.955-1.282,0.955-2.071
	c0-0.663-0.21-1.252-0.626-1.76c-0.418-0.511-1.364-1.148-2.845-1.921c-1.596-0.813-2.676-1.633-3.246-2.457
	c-0.575-0.803-0.865-1.723-0.865-2.765c0-1.356,0.458-2.484,1.373-3.378c0.916-0.895,2.066-1.34,3.444-1.34
	C281.378,348.453,283.013,349.252,284.662,350.859z"/>
<path fill="#231F20" d="M360.118,360.846l1.919,1.024c-0.617,1.245-1.345,2.246-2.176,3.006c-0.834,0.755-1.771,1.333-2.81,1.727
	c-1.04,0.397-2.215,0.593-3.522,0.593c-2.905,0-5.174-0.949-6.807-2.848c-1.635-1.901-2.451-4.046-2.451-6.438
	c0-2.265,0.689-4.278,2.077-6.043c1.756-2.254,4.109-3.378,7.064-3.378c3.021,0,5.441,1.153,7.259,3.457
	c1.288,1.625,1.938,3.651,1.947,6.075h-15.996c0.047,2.077,0.704,3.779,1.982,5.108c1.279,1.323,2.854,1.988,4.729,1.988
	c0.908,0,1.789-0.159,2.645-0.478c0.853-0.321,1.584-0.742,2.186-1.26C358.763,362.86,359.414,362.018,360.118,360.846z
	 M360.118,356.058c-0.303-1.223-0.746-2.202-1.329-2.932c-0.585-0.731-1.358-1.322-2.322-1.771
	c-0.963-0.449-1.975-0.675-3.037-0.675c-1.745,0-3.242,0.563-4.499,1.69c-0.909,0.822-1.6,2.051-2.062,3.687H360.118z"/>
<g>
	<rect x="190.499" y="94.481" fill="#231F20" width="19.55" height="306.389"/>
</g>
<path fill="#231F20" d="M121.579,114.021c8.542,0,16.64,3.255,22.802,9.165l13.533-14.11c-9.82-9.419-22.724-14.606-36.335-14.606
	c-28.948,0-52.499,23.551-52.499,52.499V400.87h19.551V201.964h48.754v-19.551H88.631v-35.444
	C88.631,128.801,103.411,114.021,121.579,114.021z"/>
<g>
	<path fill="#231F20" d="M337.451,283.963c-52.28,0-94.815-42.534-94.815-94.814c0-52.281,42.535-94.815,94.815-94.815
		c52.281,0,94.815,42.534,94.815,94.815C432.267,241.429,389.732,283.963,337.451,283.963z M337.451,113.885
		c-41.501,0-75.264,33.763-75.264,75.264s33.763,75.264,75.264,75.264c41.502,0,75.265-33.763,75.265-75.264
		S378.953,113.885,337.451,113.885z"/>
</g>
<path fill="#231F20" d="M268.296,348.493c-3.015,0-5.469,2.453-5.469,5.468v13.263h2.08v-13.263c0-1.869,1.52-3.389,3.389-3.389
	c0.874,0,1.708,0.336,2.342,0.942l1.438-1.5C271.052,349.033,269.709,348.493,268.296,348.493z"/>
<g>
	<rect x="310.795" y="340.787" fill="#231F20" width="2.078" height="26.36"/>
</g>
<path fill="#231F20" d="M249.776,342.818c0.875,0,1.708,0.335,2.342,0.942l1.438-1.501c-1.023-0.98-2.366-1.521-3.78-1.521
	c-3.014,0-5.468,2.453-5.468,5.468v20.941h2.081v-15.222h5.024v-2.08h-5.024v-3.64C246.388,344.337,247.907,342.818,249.776,342.818
	z"/>
<path fill="#231F20" d="M296.877,364.308c-0.634,0.609-1.467,0.942-2.342,0.942c-1.868,0-3.388-1.52-3.388-3.386v-9.938h5.024v-2.08
	h-5.024v-9.059h-2.081v21.077c0,3.014,2.455,5.465,5.469,5.465c1.413,0,2.756-0.54,3.779-1.519L296.877,364.308z"/>
<g>
	<polygon fill="#231F20" points="256.511,367.224 258.59,367.224 258.668,348.493 256.588,348.493 	"/>
	<circle fill="#231F20" cx="257.627" cy="342.778" r="1.991"/>
</g>
<g>
	<rect x="317.985" y="348.493" fill="#231F20" width="2.081" height="18.751"/>
	<path fill="#231F20" d="M319.023,340.787c-1.098,0-1.989,0.89-1.989,1.99c0,1.099,0.892,1.991,1.989,1.991
		c1.103,0,1.993-0.893,1.993-1.991C321.017,341.677,320.126,340.787,319.023,340.787z"/>
</g>
<path fill="#231F20" d="M332.17,348.493c-4.381,0-7.943,3.563-7.943,7.943v10.759h2.079v-10.759c0-3.231,2.631-5.864,5.864-5.864
	c3.231,0,5.861,2.633,5.861,5.864v10.771h2.08v-10.771C340.111,352.056,336.548,348.493,332.17,348.493z"/>
<g>
	<g>
		<path fill="#231F20" d="M382.709,386.737l-1.809,1.131c-1.563-2.09-3.697-3.136-6.398-3.136c-2.164,0-3.96,0.694-5.388,2.086
			c-1.428,1.387-2.143,3.079-2.143,5.072c0,1.291,0.329,2.513,0.984,3.659c0.661,1.146,1.56,2.033,2.7,2.658
			c1.141,0.624,2.422,0.938,3.846,0.938c2.616,0,4.749-1.034,6.398-3.102l1.809,1.18c-0.85,1.271-1.989,2.254-3.417,2.949
			c-1.428,0.694-3.056,1.039-4.888,1.039c-2.79,0-5.11-0.887-6.957-2.665c-1.845-1.778-2.77-3.936-2.77-6.478
			c0-1.726,0.435-3.319,1.301-4.791c0.866-1.47,2.051-2.619,3.554-3.443c1.505-0.821,3.191-1.235,5.065-1.235
			c1.166,0,2.294,0.179,3.385,0.534c1.094,0.355,2.024,0.822,2.79,1.397C381.536,385.107,382.18,385.841,382.709,386.737z"/>
	</g>
	<g>
		<path fill="#231F20" d="M431.841,397.528c0,2.552-0.227,4.42-0.681,5.602c-0.606,1.668-1.669,2.954-3.188,3.851
			c-1.517,0.901-3.336,1.354-5.459,1.354c-1.567,0-2.973-0.222-4.209-0.665c-1.236-0.441-2.248-1.032-3.03-1.772
			c-0.785-0.739-1.5-1.822-2.155-3.247h2.537c0.696,1.203,1.587,2.094,2.676,2.668c1.087,0.574,2.442,0.859,4.067,0.859
			c1.589,0,2.936-0.297,4.032-0.894c1.1-0.597,1.881-1.341,2.348-2.236c0.461-0.896,0.692-2.347,0.692-4.357v-0.931
			c-0.871,1.117-1.944,1.976-3.221,2.572c-1.278,0.595-2.621,0.893-4.034,0.893c-1.669,0-3.239-0.414-4.717-1.242
			c-1.472-0.827-2.608-1.945-3.41-3.355c-0.802-1.409-1.202-2.952-1.202-4.631s0.416-3.243,1.252-4.695
			c0.835-1.452,1.99-2.604,3.468-3.449c1.483-0.843,3.036-1.266,4.659-1.266c1.368,0,2.61,0.21,3.728,0.63
			c0.937,0.344,2.048,0.999,3.329,1.973c1.085,0.893,1.935,2.599,2.552,5.118C431.852,390.637,431.841,393.043,431.841,397.528z
			 M422.563,384.838c-1.326,0-2.555,0.32-3.688,0.963c-1.13,0.64-2.021,1.523-2.666,2.648c-0.646,1.127-0.971,2.349-0.971,3.664
			c0,1.999,0.669,3.648,2.005,4.951c1.338,1.305,3.068,1.956,5.186,1.956c2.167,0,3.902-0.648,5.204-1.938
			c1.305-1.293,1.956-2.992,1.956-5.104c0-1.368-0.304-2.591-0.904-3.662c-0.601-1.069-1.452-1.919-2.551-2.54
			C425.033,385.15,423.845,384.838,422.563,384.838z"/>
	</g>
	<path fill="#231F20" d="M308.08,384.894l-1.444,1.528c-1.224-1.192-2.405-1.79-3.552-1.79c-0.74,0-1.372,0.243-1.894,0.732
		c-0.529,0.488-0.788,1.068-0.788,1.742c0,0.563,0.218,1.104,0.655,1.626c0.429,0.554,1.335,1.189,2.718,1.902
		c1.69,0.882,2.838,1.734,3.435,2.56c0.592,0.832,0.888,1.77,0.888,2.813c0,1.452-0.507,2.688-1.519,3.703
		c-1.015,1.013-2.279,1.519-3.8,1.519c-1.018,0-1.987-0.22-2.916-0.657c-0.928-0.438-1.69-1.057-2.291-1.849l1.43-1.641
		c1.156,1.321,2.384,1.981,3.68,1.981c0.901,0,1.667-0.293,2.307-0.886c0.636-0.588,0.954-1.281,0.954-2.071
		c0-0.662-0.208-1.252-0.625-1.759c-0.418-0.513-1.365-1.149-2.845-1.922c-1.596-0.813-2.676-1.633-3.247-2.458
		c-0.574-0.802-0.864-1.722-0.864-2.764c0-1.356,0.456-2.484,1.373-3.378c0.915-0.894,2.065-1.341,3.444-1.341
		C304.796,382.485,306.431,383.285,308.08,384.894z"/>
	<path fill="#231F20" d="M293.338,398.341c-0.635,0.608-1.468,0.942-2.343,0.942c-1.869,0-3.388-1.52-3.388-3.387v-9.938h5.025
		v-2.08h-5.025v-9.059h-2.08v21.076c0,3.015,2.453,5.466,5.468,5.466c1.414,0,2.757-0.54,3.78-1.519L293.338,398.341z"/>
	<path fill="#231F20" d="M358.817,382.527c-3.014,0-5.467,2.453-5.467,5.467v13.263h2.079v-13.263c0-1.869,1.521-3.389,3.388-3.389
		c0.876,0,1.709,0.336,2.343,0.942l1.438-1.5C361.574,383.066,360.232,382.527,358.817,382.527z"/>
	<g>
		<polygon fill="#231F20" points="386.795,401.257 388.874,401.257 388.952,382.527 386.872,382.527 		"/>
		<circle fill="#231F20" cx="387.91" cy="376.811" r="1.991"/>
	</g>
	<path fill="#231F20" d="M401.056,382.527c-4.382,0-7.944,3.562-7.944,7.942v10.759h2.08V390.47c0-3.23,2.63-5.864,5.864-5.864
		c3.23,0,5.86,2.634,5.86,5.864v10.771h2.081V390.47C408.997,386.089,405.435,382.527,401.056,382.527z"/>
	<path fill="#231F20" d="M273.424,401.241c4.381,0,7.943-3.563,7.943-7.943v-10.759h-2.079v10.759c0,3.23-2.631,5.862-5.864,5.862
		c-3.231,0-5.861-2.632-5.861-5.862v-10.771h-2.081v10.771C265.481,397.679,269.045,401.241,273.424,401.241z"/>
	<path fill="#231F20" d="M341.247,401.241c4.381,0,7.943-3.563,7.943-7.943v-10.759h-2.08v10.759c0,3.23-2.631,5.862-5.863,5.862
		c-3.231,0-5.861-2.632-5.861-5.862v-10.771h-2.081v10.771C333.305,397.679,336.867,401.241,341.247,401.241z"/>
	<g>
		<path fill="#231F20" d="M251.978,401.234c-5.151,0-9.341-4.189-9.341-9.344c0-5.151,4.19-9.344,9.341-9.344
			c5.15,0,9.345,4.192,9.345,9.344C261.322,397.045,257.128,401.234,251.978,401.234z M251.978,384.512
			c-4.068,0-7.375,3.312-7.375,7.379c0,4.07,3.307,7.377,7.375,7.377c4.07,0,7.379-3.307,7.379-7.377
			C259.356,387.823,256.048,384.512,251.978,384.512z"/>
	</g>
	<g>
		<path fill="#231F20" d="M319.938,401.234c-5.15,0-9.341-4.189-9.341-9.344c0-5.151,4.19-9.344,9.341-9.344
			s9.345,4.192,9.345,9.344C329.282,397.045,325.088,401.234,319.938,401.234z M319.938,384.512c-4.068,0-7.375,3.312-7.375,7.379
			c0,4.07,3.307,7.377,7.375,7.377c4.071,0,7.379-3.307,7.379-7.377C327.316,387.823,324.009,384.512,319.938,384.512z"/>
	</g>
</g>
</svg>
